<svg width="25" height="24" viewBox="0 0 25 24" fill="none" xmlns="http://www.w3.org/2000/svg">
<g id="star fill">
<path id="Icon" d="M14.1652 3.07822L15.8167 6.56396C16.0874 7.13459 16.6101 7.53007 17.2149 7.62167L20.9084 8.18071C22.4312 8.41113 23.0393 10.3599 21.9372 11.4787L19.2638 14.1916C18.8263 14.6358 18.6266 15.2759 18.7299 15.9032L19.3607 19.7343C19.6211 21.3139 18.029 22.5182 16.6674 21.7727L13.3637 19.9649C12.8228 19.6686 12.1765 19.6686 11.6356 19.9649L8.33198 21.7738C6.97035 22.5194 5.37819 21.3137 5.6386 19.7355L6.26947 15.9044C6.3732 15.2768 6.17337 14.6362 5.73556 14.1916L3.06278 11.4784C1.96072 10.3596 2.56885 8.41082 4.09164 8.1804L7.78515 7.62137C8.38994 7.52975 8.91258 7.13424 9.18328 6.56365L10.8342 3.07827C11.516 1.64061 13.4834 1.64056 14.1652 3.07822Z" fill="#FFAE43"/>
</g>
</svg>
